<!DOCTYPE svg PUBLIC "-//W3C//DTD SVG 20010904//EN" "http://www.w3.org/TR/2001/REC-SVG-20010904/DTD/svg10.dtd">
<svg version="1.0" xmlns="http://www.w3.org/2000/svg" width="821px" height="750px" viewBox="0 0 8210 7500" preserveAspectRatio="xMidYMid meet">
<g id="layer101" fill="#1b1924" stroke="none">
 <path d="M3505 7488 c-197 -31 -622 -113 -632 -122 -10 -9 -1 -149 38 -636 27 -344 51 -668 52 -720 2 -89 1 -95 -19 -98 -16 -2 -25 7 -40 40 -145 323 -536 520 -1034 521 -424 1 -772 -163 -959 -452 -92 -143 -115 -260 -108 -536 7 -265 52 -555 137 -884 17 -63 30 -115 30 -117 0 -2 -42 -25 -92 -51 -117 -60 -232 -147 -300 -225 -37 -41 -69 -68 -105 -84 -147 -65 -325 -220 -401 -349 -55 -95 -72 -167 -72 -311 0 -165 20 -225 111 -340 83 -105 262 -265 462 -413 74 -55 97 -77 92 -90 -45 -114 -58 -173 -63 -277 -5 -131 7 -212 50 -331 58 -160 208 -345 366 -452 87 -59 231 -126 331 -154 l83 -24 32 -84 c117 -311 423 -557 779 -624 103 -20 302 -19 407 1 45 8 85 13 88 10 3 -4 17 -37 32 -74 75 -193 256 -387 464 -498 105 -56 179 -82 286 -99 110 -19 379 -19 490 -1 202 33 409 150 564 317 l64 69 73 -36 c357 -177 776 -147 1114 79 86 57 242 220 291 303 68 115 112 245 129 375 l6 47 42 -10 c63 -15 269 -3 360 21 200 52 369 146 506 281 256 250 338 554 238 880 -19 63 -38 122 -42 131 -5 14 7 21 62 39 85 28 229 100 307 153 79 53 206 175 267 256 103 138 180 317 205 480 19 125 18 408 -1 539 -44 290 -211 550 -423 655 -80 39 -90 42 -188 45 -57 3 -104 8 -104 13 0 5 54 323 121 706 66 382 117 699 112 704 -4 4 -159 51 -343 103 -264 76 -337 93 -346 83 -6 -6 -51 -286 -99 -622 -48 -335 -88 -611 -90 -613 -1 -1 -22 13 -46 31 -141 106 -307 175 -514 212 -18 4 -20 11 -17 82 2 43 11 281 22 528 10 248 15 453 12 457 -11 11 -695 -53 -709 -66 -8 -8 -14 -103 -19 -319 l-7 -307 -52 49 c-68 64 -182 139 -278 181 l-76 33 5 41 c2 23 25 302 50 621 24 319 49 629 54 690 7 84 7 112 -3 121 -18 17 -675 134 -751 134 l-34 0 -6 -82 c-4 -46 -20 -351 -36 -678 -46 -915 -41 -841 -59 -847 -120 -42 -264 -131 -370 -229 l-72 -66 -57 53 c-31 30 -72 65 -89 79 l-33 25 -40 780 c-22 429 -42 822 -46 873 l-6 92 -47 -1 c-25 -1 -73 -6 -106 -11z m-25 -200 c0 -2 16 -304 35 -673 41 -795 41 -770 18 -760 -57 24 -191 57 -273 67 l-95 12 -49 620 c-26 342 -50 630 -53 641 -4 19 9 23 184 57 174 33 233 42 233 36z m1387 -35 c190 -34 202 -38 198 -57 -2 -12 -25 -298 -52 -636 l-47 -615 -194 0 -194 0 6 95 c4 52 18 318 31 590 28 571 34 660 43 660 4 0 98 -16 209 -37z m-2676 -1006 c270 -71 451 -190 527 -347 70 -144 155 -620 213 -1199 10 -107 18 -195 17 -196 -2 -1 -34 -10 -71 -19 -204 -54 -380 -265 -487 -583 -21 -63 -40 -116 -42 -119 -3 -2 -17 26 -32 64 -123 298 -349 485 -569 470 -141 -10 -260 -81 -374 -221 l-62 -77 -55 173 c-174 542 -266 1010 -266 1344 0 248 40 365 169 493 88 87 187 147 317 191 146 50 217 59 429 55 164 -3 203 -7 286 -29z m3924 -164 c-3 -32 -9 -186 -15 -343 -6 -157 -13 -329 -16 -382 l-6 -97 -47 -6 c-50 -7 -183 -32 -217 -41 -18 -5 -24 4 -49 73 -35 97 -37 131 -28 513 l8 305 165 16 c91 9 175 17 187 18 22 1 22 -2 18 -56z m1230 -92 c117 -33 171 -53 173 -63 2 -12 -221 -1331 -231 -1360 -1 -4 -31 -27 -67 -52 l-65 -45 -25 82 c-23 72 -67 166 -124 262 -18 29 -16 41 68 623 47 326 86 595 86 597 0 9 13 6 185 -44z m-2344 -255 c179 -45 321 -127 437 -251 116 -125 192 -302 192 -451 0 -35 4 -65 9 -69 5 -3 36 6 68 20 124 56 219 77 368 82 115 4 157 1 235 -15 179 -37 325 -110 442 -220 166 -157 248 -352 236 -564 -3 -49 -1 -91 4 -94 5 -3 39 19 76 49 198 160 330 221 482 222 77 0 92 -3 152 -33 124 -61 213 -192 264 -388 32 -124 44 -363 24 -507 -57 -424 -255 -711 -540 -783 -130 -33 -326 -1 -482 77 -32 16 -63 29 -70 29 -17 0 -88 -48 -88 -59 0 -5 34 -30 75 -56 184 -114 309 -282 351 -473 24 -108 16 -262 -20 -367 -96 -281 -363 -487 -696 -536 -106 -15 -281 -6 -385 20 -44 11 -84 16 -88 12 -4 -5 -3 -39 4 -76 16 -92 5 -218 -27 -314 -103 -311 -412 -526 -785 -548 -215 -12 -441 49 -602 163 -26 19 -49 34 -52 34 -2 0 -24 -32 -49 -70 -85 -130 -184 -219 -328 -291 -331 -167 -757 -126 -1035 98 -158 128 -256 300 -278 491 -4 34 -10 64 -14 66 -4 3 -44 -9 -90 -25 -293 -104 -626 -67 -871 96 -172 114 -280 268 -329 469 l-17 71 -70 11 c-302 51 -543 223 -654 468 -42 91 -60 176 -60 279 0 83 23 222 39 231 4 3 45 -18 92 -46 46 -28 128 -74 182 -103 l97 -52 46 -94 c58 -118 113 -196 200 -280 155 -149 371 -200 514 -123 63 34 156 123 220 212 44 61 62 73 76 51 4 -6 -12 -28 -37 -49 -24 -21 -41 -41 -37 -45 11 -12 494 -6 574 6 65 10 78 9 139 -11 95 -31 199 -26 275 16 70 38 133 96 195 178 40 54 65 75 125 108 286 156 615 402 810 604 199 206 257 352 216 543 -59 277 -343 543 -644 601 -83 17 -212 8 -281 -19 -30 -11 -55 -20 -55 -18 -1 1 -20 41 -44 89 -76 153 -192 284 -304 343 l-55 29 -7 74 c-11 133 -17 120 96 208 189 147 315 289 352 397 30 89 16 208 -35 313 -31 64 -148 187 -224 236 -66 43 -65 43 73 7 205 -54 405 -198 503 -361 18 -32 38 -58 44 -58 5 0 21 21 35 47 114 216 364 377 655 423 94 14 269 3 376 -24z m-1857 -148 c140 -54 248 -180 263 -308 8 -69 -28 -140 -120 -233 -83 -84 -215 -193 -224 -184 -3 4 -16 91 -29 194 -13 103 -38 268 -54 366 -17 98 -30 180 -30 182 0 7 65 11 105 6 22 -2 62 -12 89 -23z m-79 -1242 c122 -37 212 -132 305 -321 105 -212 149 -413 157 -715 4 -151 2 -225 -12 -330 -51 -404 -205 -715 -401 -811 -153 -76 -315 -18 -438 154 -107 152 -182 354 -222 607 -23 145 -24 486 -1 629 70 433 238 725 457 792 41 12 103 10 155 -5z m-1991 -178 c24 -76 39 -135 33 -131 -6 4 -40 28 -76 55 -56 42 -117 68 -215 92 -6 1 12 18 40 36 66 46 168 101 171 92 2 -4 23 -69 47 -144z m783 -4 c155 -53 280 -215 368 -476 53 -160 65 -231 65 -396 0 -81 5 -207 12 -281 14 -157 3 -268 -42 -447 -117 -465 -372 -699 -624 -575 -320 158 -500 871 -375 1494 41 205 127 414 218 526 116 145 248 199 378 155z m-970 -192 c49 -26 144 -102 229 -184 l61 -59 -24 -87 c-80 -296 -95 -684 -38 -987 7 -38 11 -72 10 -74 -5 -5 -160 89 -300 182 -360 239 -612 489 -646 642 -23 101 21 240 109 352 77 96 225 192 353 228 75 21 192 15 246 -13z m3027 -122 c156 -53 324 -193 384 -320 41 -88 56 -176 42 -245 -32 -153 -270 -391 -649 -647 -63 -43 -116 -76 -118 -74 -2 2 8 43 22 92 48 166 67 303 72 530 6 235 -4 355 -43 532 -14 63 -23 116 -20 119 3 3 29 14 58 25 65 23 164 18 252 -12z m-1475 -1391 c18 -43 57 -114 87 -160 29 -45 54 -87 54 -92 0 -6 -26 -8 -64 -5 -65 6 -196 56 -196 76 0 6 13 48 30 93 16 46 34 104 40 128 6 23 13 41 15 40 1 -2 17 -38 34 -80z"/>
 <path d="M1946 6009 c-57 -45 -13 -109 74 -109 33 0 55 6 74 21 57 45 13 109 -74 109 -33 0 -55 -6 -74 -21z"/>
 <path d="M1468 5995 c-32 -18 -43 -47 -28 -74 16 -30 43 -41 100 -41 41 0 56 5 75 25 33 32 31 48 -6 79 -35 30 -97 35 -141 11z"/>
 <path d="M3134 3521 c-121 -56 -194 -213 -194 -416 0 -162 45 -289 129 -368 109 -102 235 -80 328 57 108 159 103 490 -11 639 -72 95 -167 128 -252 88z"/>
 <path d="M1748 3270 c-82 -24 -158 -125 -189 -250 -28 -112 -24 -292 10 -390 41 -116 118 -196 210 -215 55 -12 117 12 172 66 83 81 119 190 119 363 0 178 -33 280 -120 367 -62 62 -128 81 -202 59z"/>
 </g>
<g id="layer102" fill="#ff4b4b" stroke="none">
 <path d="M2983 5632 c-55 -6 -56 -13 -23 -208 16 -99 39 -251 50 -339 11 -88 23 -179 26 -202 4 -30 10 -43 21 -43 23 0 144 100 239 196 103 104 139 172 131 244 -9 73 -39 133 -99 196 -109 115 -226 169 -345 156z"/>
 </g>
<g id="layer103" fill="#ce9b7c" stroke="none">
 <path d="M3248 7271 c-103 -20 -191 -40 -196 -46 -12 -13 89 -1291 103 -1303 6 -5 53 -14 105 -20 53 -6 134 -23 180 -37 125 -38 124 -38 128 15 4 58 -66 1409 -74 1421 -8 14 -44 9 -246 -30z"/>
 <path d="M4635 7301 c-6 -10 -77 -1349 -72 -1364 2 -7 369 -17 418 -12 1 0 25 290 54 645 38 474 49 648 41 656 -10 10 -381 84 -420 84 -8 0 -17 -4 -21 -9z"/>
 <path d="M1640 6285 c-108 -20 -241 -67 -329 -117 -104 -59 -236 -190 -279 -278 -96 -195 -81 -581 43 -1120 69 -299 211 -763 235 -767 8 -2 26 16 40 38 14 23 50 67 80 99 172 179 394 209 589 79 107 -71 204 -203 280 -377 20 -48 43 -87 50 -87 7 0 30 53 56 130 110 337 269 529 483 583 39 10 74 21 77 24 7 7 -18 270 -50 528 -55 435 -121 765 -177 880 -60 124 -208 246 -382 315 -156 61 -245 77 -451 81 -135 2 -212 -1 -265 -11z m441 -285 c11 -6 19 -21 19 -35 0 -30 -26 -45 -80 -45 -23 0 -50 5 -61 10 -24 13 -25 56 -1 69 22 14 98 14 123 1z m-483 -26 c49 -34 15 -74 -63 -74 -54 0 -85 16 -85 45 0 23 42 45 85 45 22 0 51 -7 63 -16z"/>
 <path d="M5908 6141 c-92 -9 -171 -20 -176 -26 -6 -6 -11 -166 -13 -380 l-4 -370 31 -85 c17 -46 36 -86 42 -88 5 -1 36 4 69 12 32 8 96 20 143 26 47 6 88 15 93 19 8 8 47 891 40 904 -5 9 -20 8 -225 -12z"/>
 <path d="M7147 6053 c-3 -5 -44 -279 -92 -611 l-87 -603 25 -38 c46 -69 97 -180 121 -263 15 -53 29 -83 38 -82 17 1 148 93 154 108 7 20 234 1342 234 1364 0 11 -5 24 -10 27 -14 9 -351 105 -367 105 -6 0 -14 -3 -16 -7z"/>
 <path d="M641 4005 c-182 -51 -359 -193 -437 -350 -101 -203 -60 -331 178 -561 171 -164 389 -326 649 -482 104 -62 124 -66 115 -19 -32 155 -40 246 -40 472 -1 262 10 355 63 560 l28 108 -67 63 c-97 92 -197 172 -244 196 -53 28 -170 34 -245 13z"/>
 <path d="M3662 3882 c-88 -32 -88 -31 -58 -163 39 -178 49 -298 43 -533 -3 -151 -11 -244 -25 -326 -18 -100 -56 -246 -77 -302 -14 -36 32 -17 146 60 208 140 355 260 485 393 200 206 233 326 142 519 -40 84 -184 231 -279 283 -142 79 -279 104 -377 69z"/>
 <path d="M2386 2552 c-2 -4 -11 -35 -20 -68 -9 -34 -27 -91 -41 -128 -14 -36 -25 -73 -25 -81 0 -21 137 -84 197 -92 60 -7 103 2 103 20 0 8 -25 51 -55 96 -30 46 -71 123 -91 172 -33 80 -53 104 -68 81z"/>
 </g>
<g id="layer104" fill="#ffffff" stroke="none">
 <path d="M4625 5780 c-290 -45 -535 -203 -667 -428 l-25 -42 -36 57 c-43 71 -171 197 -251 248 -33 21 -89 51 -125 68 -68 30 -235 77 -277 77 -41 0 -26 -24 34 -55 77 -39 209 -173 243 -245 58 -123 64 -251 15 -350 -51 -104 -180 -237 -359 -368 l-79 -57 7 -105 c4 -57 9 -108 11 -112 3 -4 32 -22 65 -39 118 -63 209 -166 292 -329 27 -52 52 -98 56 -102 4 -4 31 2 61 13 70 27 199 36 282 19 239 -46 479 -230 579 -444 85 -182 74 -356 -34 -518 -137 -206 -556 -543 -929 -747 -66 -36 -87 -55 -148 -132 -74 -94 -157 -159 -229 -179 -59 -16 -153 -12 -217 11 -54 18 -67 19 -149 9 -49 -6 -192 -12 -318 -13 l-227 -2 40 33 c44 37 48 49 22 68 -28 22 -46 16 -71 -24 -85 -131 -203 -238 -289 -262 -132 -36 -324 23 -445 139 -81 77 -122 136 -188 265 l-56 111 -99 53 c-54 30 -141 79 -193 110 -87 52 -95 54 -107 38 -40 -56 -57 -276 -29 -393 73 -308 379 -570 723 -618 l51 -7 10 -49 c41 -192 171 -374 349 -493 246 -163 579 -201 870 -98 l81 29 7 -56 c23 -189 128 -370 292 -501 376 -301 962 -263 1288 82 39 41 95 117 130 176 1 2 24 -12 51 -31 301 -215 760 -220 1078 -12 85 55 214 188 263 270 66 113 94 211 96 335 0 58 -2 123 -6 146 l-8 41 78 -19 c102 -25 277 -34 382 -19 336 50 618 268 716 556 36 105 44 259 20 367 -42 187 -172 365 -355 483 l-73 47 34 23 33 23 65 -33 c164 -83 358 -115 490 -81 282 71 482 343 552 751 29 169 22 414 -16 559 -52 199 -152 343 -284 408 -60 30 -75 33 -152 33 -156 -1 -295 -68 -516 -248 l-30 -26 4 83 c17 315 -200 619 -533 751 -126 50 -241 68 -400 62 -149 -5 -244 -26 -367 -81 l-58 -26 0 59 c0 254 -206 535 -487 663 -149 67 -385 101 -538 78z"/>
 <path d="M2910 4371 c-66 -21 -131 -65 -191 -127 -141 -148 -236 -375 -286 -685 -23 -143 -22 -484 1 -629 64 -399 221 -690 424 -786 246 -116 514 135 632 591 47 181 63 350 57 575 -8 291 -51 497 -147 699 -113 237 -246 358 -402 367 -35 2 -74 0 -88 -5z m381 -874 c117 -62 184 -260 159 -472 -22 -190 -87 -296 -200 -326 -160 -42 -290 140 -290 406 0 242 104 414 251 415 20 0 56 -10 80 -23z"/>
 <path d="M950 4300 c-124 -68 -195 -140 -137 -140 57 0 155 -41 228 -95 69 -51 99 -66 99 -47 0 4 -22 75 -48 157 -55 172 -56 172 -142 125z"/>
 <path d="M1700 4191 c-129 -40 -240 -149 -331 -327 -237 -467 -222 -1220 33 -1657 58 -100 157 -200 234 -238 136 -67 268 -34 395 98 112 117 195 281 249 497 45 179 56 290 42 447 -7 74 -12 200 -12 281 0 165 -12 236 -65 396 -89 265 -227 441 -388 496 -50 17 -115 20 -157 7z m209 -964 c89 -59 132 -167 138 -348 8 -186 -24 -305 -102 -382 -124 -125 -288 -63 -356 134 -34 97 -38 277 -10 389 31 123 92 206 170 231 42 14 121 2 160 -24z"/>
 </g>

</svg>